<svg id= "root" fill="currentColor" width="14" height="12" viewBox="0 0 14 12" xmlns="http://www.w3.org/2000/svg">
<path fill-rule="evenodd" clip-rule="evenodd" d="M0 6C-1.81059e-08 5.58579 0.335786 5.25 0.75 5.25L11.3879 5.25L7.23017 1.29063C6.93159 1.00353 6.92228 0.528748 7.20937 0.230169C7.49647 -0.0684092 7.97125 -0.077719 8.26983 0.209376L13.7698 5.45938C13.9169 5.60078 14 5.79599 14 6C14 6.20401 13.9169 6.39922 13.7698 6.54063L8.26983 11.7906C7.97125 12.0777 7.49647 12.0684 7.20938 11.7698C6.92228 11.4713 6.93159 10.9965 7.23017 10.7094L11.3879 6.75L0.75 6.75C0.335786 6.75 1.81059e-08 6.41421 0 6Z"/>
</svg>
