<svg width="926" height="581" viewBox="0 0 926 581" fill="#FFF" xmlns="http://www.w3.org/2000/svg">
<path fill-rule="evenodd" clip-rule="evenodd" d="M654.38 106C683.651 106 707.38 82.2711 707.38 53C707.38 23.7289 683.651 0 654.38 0C625.109 0 601.38 23.7289 601.38 53C601.38 82.2711 625.109 106 654.38 106Z" fill="#F2F2F2"/>
<path fill-rule="evenodd" clip-rule="evenodd" d="M654.38 14C656.037 14 657.38 12.6569 657.38 11C657.38 9.34315 656.037 8 654.38 8C652.723 8 651.38 9.34315 651.38 11C651.38 12.6569 652.723 14 654.38 14Z" fill="black" fill-opacity="0.1"/>
<path fill-rule="evenodd" clip-rule="evenodd" d="M612.38 56C614.037 56 615.38 54.6569 615.38 53C615.38 51.3431 614.037 50 612.38 50C610.723 50 609.38 51.3431 609.38 53C609.38 54.6569 610.723 56 612.38 56Z" fill="black" fill-opacity="0.1"/>
<path fill-rule="evenodd" clip-rule="evenodd" d="M696.38 56C698.037 56 699.38 54.6569 699.38 53C699.38 51.3431 698.037 50 696.38 50C694.723 50 693.38 51.3431 693.38 53C693.38 54.6569 694.723 56 696.38 56Z" fill="black" fill-opacity="0.1"/>
<path fill-rule="evenodd" clip-rule="evenodd" d="M654.38 98C656.037 98 657.38 96.6569 657.38 95C657.38 93.3431 656.037 92 654.38 92C652.723 92 651.38 93.3431 651.38 95C651.38 96.6569 652.723 98 654.38 98Z" fill="black" fill-opacity="0.1"/>
<path fill-rule="evenodd" clip-rule="evenodd" d="M654.38 17L656.38 52H652.38L654.38 17Z" fill="#AFB9C5"/>
<path fill-rule="evenodd" clip-rule="evenodd" d="M672.078 70.6985L653.693 55.1421L656.522 52.3137L672.078 70.6985Z" fill="#AFB9C5"/>
<path fill-rule="evenodd" clip-rule="evenodd" d="M654.38 57C656.589 57 658.38 55.2091 658.38 53C658.38 50.7909 656.589 49 654.38 49C652.171 49 650.38 50.7909 650.38 53C650.38 55.2091 652.171 57 654.38 57Z" fill="#C5CFD6"/>
<path fill-rule="evenodd" clip-rule="evenodd" d="M720.685 343.966C710.176 254.227 146.28 81.021 41.5944 166.02C-63.0909 251.019 37.551 410.54 256.933 451.389C476.315 492.239 731.195 433.705 720.685 343.966Z" fill="#F2F2F2" fill-opacity="0.4"/>
<path fill-rule="evenodd" clip-rule="evenodd" d="M244.227 402.274C253.932 326.037 774.659 178.892 871.33 251.102C968.001 323.312 943.532 475.198 740.945 509.901C538.358 544.604 234.522 478.511 244.227 402.274Z" fill="#DDE3E9" fill-opacity="0.2"/>
<path d="M853.277 577C853.277 575.343 854.62 574 856.277 574H909.277C910.934 574 912.277 575.343 912.277 577V578C912.277 579.657 910.934 581 909.277 581H856.277C854.62 581 853.277 579.657 853.277 578V577Z" fill="#AFB9C5"/>
<path d="M700.776 194.335C713.663 181.447 734.557 181.447 747.445 194.335C760.332 207.222 760.332 228.116 747.445 241.004L727.646 260.803L680.977 214.134L700.776 194.335Z" fill="#C5CFD6"/>
<path fill-rule="evenodd" clip-rule="evenodd" d="M700.505 241.527C713.392 254.414 725.897 262.804 728.436 260.265C730.974 257.727 722.585 245.222 709.697 232.335C696.81 219.447 684.305 211.058 681.767 213.596C679.228 216.135 687.618 228.64 700.505 241.527Z" fill="#F2F2F2"/>
<path fill-rule="evenodd" clip-rule="evenodd" d="M159.638 343.173C162.502 342.823 165.56 342.947 168.224 344.077C173.888 346.482 175.498 353.174 175.421 358.614C175.337 364.468 174.094 370.863 178.545 375.58C180.591 377.748 183.136 379.408 185.145 381.617C187.292 383.977 188.976 386.677 190.224 389.577C192.514 394.903 193.638 401.167 191.543 406.754C189.7 411.674 185.061 416.114 186.063 421.708C187.109 427.543 192.992 432.004 196.67 436.351C200.833 441.269 204.666 447.556 205.295 454.006C205.899 460.188 203.208 466.44 199.078 471.113C190.827 480.451 178.425 485.028 165.919 485C160.61 484.988 154.598 484.748 150.016 481.895C148.6 481.013 147.853 480.023 147.011 478.648C146.256 477.414 145.259 476.612 144.105 475.739C141.57 473.822 139.738 471.239 138.57 468.347C134.032 457.114 137.659 443.218 144.011 433.243C145.516 430.88 146.748 428.605 146.017 425.789C145.254 422.848 143.379 420.196 141.72 417.669C140.081 415.171 138.21 412.787 136.928 410.087C135.587 407.257 135.209 404.294 135.446 401.198C135.892 395.381 138.402 390.013 141.957 385.336C145.381 380.83 149.402 376.518 149.411 370.615C149.421 364.357 145.237 358.791 147.02 352.429C147.758 349.795 149.24 347.092 151.628 345.513C153.919 343.998 156.944 343.502 159.638 343.173Z" fill="#DDE3E9"/>
<path fill-rule="evenodd" clip-rule="evenodd" d="M157.766 353.176C157.82 352.336 158.816 351.832 159.601 352.051C160.634 352.34 160.614 353.305 160.587 354.165C160.503 356.808 160.886 359.377 161.521 361.942C162.842 367.274 165.282 372.186 167.216 377.308C169.148 382.426 170.055 387.709 168.921 393.124C167.853 398.23 166.174 403.203 165.081 408.315C164.117 412.821 163.092 417.573 164.56 422.067C165.972 426.393 169.094 429.916 171.342 433.825C175.996 441.918 178.061 450.896 178.337 460.135C178.465 464.425 178.35 468.755 177.355 472.963C176.782 475.386 176.012 478.66 173.936 480.333C172.978 481.105 171.341 481.371 170.535 480.229C169.778 479.158 170.442 477.499 170.682 476.357C171.722 471.413 171.932 466.361 171.683 461.342C171.442 456.48 170.867 451.626 169.337 446.982C167.917 442.673 165.759 438.802 163.22 435.032C160.632 431.191 157.942 427.341 156.873 422.789C155.786 418.166 156.669 413.462 157.849 408.927C159.097 404.131 160.731 399.472 162.421 394.805C164.068 390.258 164.652 385.955 163.743 381.196C161.947 371.794 157.14 362.968 157.766 353.176Z" fill="#C5CFD6"/>
<path fill-rule="evenodd" clip-rule="evenodd" d="M235.272 354.582C238.817 355.659 242.338 357.395 244.865 360.118C250.238 365.909 248.589 374.661 245.623 381.053C242.43 387.933 237.592 394.849 240.319 402.743C241.573 406.372 243.681 409.659 244.87 413.316C246.141 417.224 246.689 421.294 246.619 425.372C246.49 432.862 244.497 440.855 239.088 446.373C234.325 451.232 226.537 454.07 224.756 461.206C222.898 468.651 227.441 476.988 229.457 484.041C231.74 492.024 232.913 501.453 230.242 509.409C227.682 517.034 221.222 523.028 213.908 526.406C199.295 533.156 182.328 532.117 167.676 525.578C161.454 522.801 154.53 519.391 150.664 513.633C149.469 511.853 149.116 510.294 148.856 508.23C148.622 506.378 147.877 504.911 146.984 503.278C145.024 499.692 144.242 495.684 144.399 491.656C145.014 476.011 156.613 461.464 169.336 452.972C172.35 450.96 174.998 448.912 175.629 445.2C176.288 441.325 175.49 437.213 174.881 433.361C174.279 429.554 173.344 425.763 173.268 421.902C173.19 417.858 174.313 414.157 176.228 410.619C179.825 403.972 185.607 398.93 192.249 395.247C198.647 391.7 205.641 388.692 208.772 381.715C212.092 374.32 210.127 365.561 215.58 358.964C217.838 356.233 221.005 353.807 224.641 353.182C228.129 352.583 231.938 353.57 235.272 354.582Z" fill="#DDE3E9"/>
<path fill-rule="evenodd" clip-rule="evenodd" d="M228.031 366.811C228.534 365.844 229.964 365.769 230.766 366.44C231.823 367.324 231.294 368.456 230.812 369.46C229.33 372.547 228.432 375.789 227.832 379.159C226.583 386.166 226.864 393.262 226.443 400.341C226.021 407.414 224.314 414.147 220.153 419.965C216.23 425.452 211.663 430.462 207.707 435.943C204.22 440.773 200.533 445.863 199.895 451.954C199.281 457.817 201.087 463.626 201.668 469.434C202.872 481.457 200.584 493.171 196.068 504.257C193.971 509.405 191.568 514.472 188.201 518.933C186.262 521.503 183.647 524.977 180.343 525.869C178.82 526.281 176.765 525.739 176.421 523.964C176.098 522.298 177.743 520.682 178.621 519.455C182.427 514.146 185.317 508.273 187.655 502.198C189.92 496.314 191.79 490.265 192.433 483.963C193.029 478.116 192.533 472.401 191.538 466.606C190.524 460.701 189.395 454.731 190.528 448.781C191.679 442.736 195.175 437.628 198.93 432.876C202.901 427.85 207.253 423.19 211.673 418.549C215.98 414.027 218.916 409.238 220.345 403.126C223.17 391.049 222.17 378.078 228.031 366.811Z" fill="#C5CFD6"/>
<path fill-rule="evenodd" clip-rule="evenodd" d="M125.686 399C131.58 399 136.762 402.124 140.333 406.558C144.513 411.748 145.357 418.086 147.054 424.272C147.899 427.35 149.351 430.406 151.897 432.498C154.212 434.4 157.152 434.78 159.923 435.71C165.462 437.567 169.934 442.041 171.701 447.499C173.855 454.158 171.573 460.873 171.966 467.622C172.327 473.819 178.437 477.685 183.354 480.656C188.201 483.586 192.568 486.328 194.028 492.035C195.577 498.088 196.096 504.844 193.952 510.823C190.381 520.779 179.932 525.163 169.836 525.842C160.673 526.459 149.152 525.491 142.27 518.84C138.153 514.86 136.662 509.293 136.847 503.755C136.962 500.311 137.644 496.899 138.526 493.571C139.151 491.213 139.995 488.864 140.236 486.427C140.876 479.942 134.882 478.697 129.781 476.916C123.298 474.654 118.76 470.38 115.604 464.425C112.665 458.882 111.432 452.658 113.193 446.554C114.093 443.438 115.725 440.61 117.939 438.205C118.913 437.146 120.286 436.263 121.166 435.151C121.987 434.112 121.808 432.766 121.525 431.55C120.217 425.931 116.142 421.278 114.684 415.668C113.368 410.605 114.146 404.304 118.775 401.038C120.775 399.627 123.241 399.016 125.686 399Z" fill="#C5CFD6"/>
<path fill-rule="evenodd" clip-rule="evenodd" d="M133.717 413.641C139.965 420.296 141.663 429.325 142.161 438.076C142.44 442.983 142.15 448.159 143.592 452.919C144.825 456.993 147.717 460.107 150.698 463.051C156.699 468.975 163.39 474.999 165.146 483.574C166.175 488.606 165.48 493.803 166.903 498.78C168.197 503.304 170.475 507.748 173.246 511.568C175.477 514.645 178.384 517 180.823 519.867C181.567 520.743 182.633 522.031 182.326 523.267C181.966 524.714 180.123 525.172 178.815 524.945C175.766 524.415 173.199 521.503 171.205 519.386C168.289 516.291 165.812 512.962 163.798 509.227C161.563 505.08 159.763 500.679 158.994 496.026C158.196 491.199 158.593 486.168 156.771 481.535C153.704 473.74 146.266 469.14 140.888 463.064C134.187 455.494 135.187 446.072 135.873 436.759C136.25 431.641 136.625 425.862 134.039 421.189C133.052 419.406 130.851 417.743 130.426 415.715C130.038 413.858 132.159 411.981 133.717 413.641Z" fill="#AFB9C5"/>
<path fill-rule="evenodd" clip-rule="evenodd" d="M140.38 523C140.38 561.058 146.591 581 179.38 581C212.169 581 218.38 561.058 218.38 523H140.38Z" fill="#89C5CC"/>
<path d="M275.38 470C275.38 468.895 276.275 468 277.38 468H311.38C312.484 468 313.38 468.895 313.38 470V475C313.38 476.105 312.484 477 311.38 477H277.38C276.275 477 275.38 476.105 275.38 475V470Z" fill="#AFB9C5"/>
<path d="M292.597 395H297.163C297.681 410.419 300.087 425.085 304.38 439H310.88C319.44 439 326.38 445.94 326.38 454.5C326.38 463.06 319.44 470 310.88 470H277.88C269.319 470 262.38 463.06 262.38 454.5C262.38 445.94 269.319 439 277.88 439H285.38C291.819 418.128 292.597 395 292.597 395Z" fill="#C5CFD6"/>
<path fill-rule="evenodd" clip-rule="evenodd" d="M259.002 325.679C259.002 325.679 276.191 324 293.38 324C310.569 324 327.757 325.679 327.757 325.679L332.38 405.133C332.38 405.133 312.88 407 293.38 407C273.88 407 254.38 405.133 254.38 405.133L259.002 325.679Z" fill="#C5CFD6"/>
<path d="M231.38 581V477H356.38V581H335.38V499H252.38V581H231.38Z" fill="#C5CFD6"/>
<path fill-rule="evenodd" clip-rule="evenodd" d="M649.761 299.208C658.594 320.197 673.609 334.781 681.562 356.605C686.277 369.547 688.243 383.62 688.362 398.032C688.427 405.86 688.291 413.694 688.254 421.522C688.219 429.156 688.011 436.741 687.363 444.327C686.712 451.952 685.983 459.487 685.661 467.159C685.411 473.137 685.297 480.091 683.27 485.544C681.659 489.881 677.563 490.516 676.476 485.256C675.873 482.333 675.949 479.068 676.015 476.063C676.101 472.208 676.325 468.359 676.439 464.504C676.899 449.036 676.303 433.566 676.615 418.092C676.919 402.973 678.862 387.871 676.712 372.853C674.936 360.452 670.425 349.802 665.241 339.593C660.254 329.771 654.825 320.187 651.455 309.014C650.487 305.806 649.739 302.481 649.38 299.03C649.537 298.957 649.664 299.017 649.761 299.208Z" fill="#C1DEE2"/>
<path fill-rule="evenodd" clip-rule="evenodd" d="M647.353 340.617C649.102 341.88 650.08 343.728 651.262 345.551C652.732 347.817 654.46 349.863 655.93 352.131C658.995 356.86 661.688 361.879 664.481 366.799C669.785 376.137 673.812 386.091 675.807 396.895C677.874 408.092 678.432 419.648 679.299 431.012C680.219 443.056 681.145 455.188 681.267 467.279C681.321 472.695 681.614 478.446 680.964 483.825C680.559 487.173 679.048 490.027 675.641 490C668.405 489.942 665.007 481.927 663.588 475.354C661.498 465.674 661.082 455.393 661.412 445.494C661.812 433.558 663.884 421.802 664.78 409.912C665.73 397.325 665.193 384.96 660.866 373.109C658.68 367.12 656.142 361.274 653.864 355.325C652.894 352.792 652.099 350.19 650.789 347.831C649.331 345.208 647.521 342.826 646.38 340C646.704 340.206 647.029 340.411 647.353 340.617Z" fill="#89C5CC"/>
<path fill-rule="evenodd" clip-rule="evenodd" d="M730.714 315.518C730.936 315.345 731.158 315.173 731.38 315C730.741 317.693 729.586 319.88 728.704 322.341C727.911 324.554 727.509 327.058 726.974 329.477C725.72 335.158 724.27 340.711 723.085 346.44C720.74 357.777 721.183 369.99 722.722 382.568C724.174 394.45 726.472 406.313 727.567 418.192C728.475 428.043 728.865 438.202 727.999 447.601C727.411 453.984 725.482 461.606 720.228 460.962C717.754 460.659 716.464 457.681 715.944 454.32C715.109 448.922 714.934 443.246 714.609 437.878C713.882 425.896 713.737 413.951 713.594 402.092C713.458 390.904 713.084 379.494 713.832 368.587C714.553 358.063 716.808 348.58 720.033 339.83C721.731 335.22 723.349 330.502 725.258 326.108C726.173 324.001 727.291 322.139 728.206 320.033C728.942 318.339 729.528 316.601 730.714 315.518Z" fill="#C1DEE2"/>
<path fill-rule="evenodd" clip-rule="evenodd" d="M649.589 375.302C650.545 373.695 652.652 378.993 652.972 379.66C652.837 379.328 652.701 378.997 652.563 378.667C654.463 381.825 656.2 385.113 657.281 388.734C658.35 392.319 659.268 395.977 660.271 399.587C662.153 406.361 664.581 412.943 666.287 419.778C667.948 426.438 668.367 432.986 667.965 439.875C667.547 447.035 667.291 454.306 667.779 461.462C668.012 464.88 669.122 468.064 669.884 471.354C670.646 474.648 671.246 477.986 672.147 481.239C672.354 480.815 672.38 482.232 672.38 482.339C672.374 483.152 672.261 483.833 671.999 484.604C671.327 486.586 670.07 488.269 668.158 488.816C664.701 489.803 661.492 486.659 660.377 483.339C658.778 478.575 657.897 473.311 657.135 468.304C656.437 463.713 656.271 459.094 656.479 454.44C656.888 445.261 658.549 436.202 658.998 427.026C659.487 417.036 657.508 407.649 655.851 397.925C655.052 393.239 654.289 388.598 652.736 384.134C652.107 382.326 651.287 380.731 650.427 379.061C649.938 378.112 648.949 376.418 649.589 375.302Z" fill="#C1DEE2"/>
<path fill-rule="evenodd" clip-rule="evenodd" d="M677.632 359.697C677.235 371.142 676.552 382.5 675.026 393.824C673.469 405.38 671.68 416.897 670.182 428.464C668.723 439.722 667.194 451.168 667.398 462.585C667.548 470.993 666.154 485.219 675.493 489.369C684.952 493.572 686.981 475.623 687.602 469.699C688.792 458.333 688.407 446.847 687.829 435.419C687.236 423.689 686.246 412.02 685.019 400.334C683.656 387.353 682.587 374.314 681.729 361.296C681.305 354.857 681.2 348.429 681.317 341.988C681.428 335.911 681.197 329.77 679.036 324C678.923 324.082 678.81 324.164 678.697 324.246" fill="#69A1AC"/>
<path fill-rule="evenodd" clip-rule="evenodd" d="M726.462 395.955C724.761 398.433 723.047 400.887 721.44 403.512C718.566 408.209 715.967 413.432 715.185 420.147C713.548 434.2 714.861 449.379 715.178 463.863C715.243 466.822 714.868 469.693 716.035 472.51C717.093 475.064 719.07 477.01 720.955 477C724.99 476.977 724.375 467.095 724.381 462.746C724.394 455.123 723.539 447.422 723.612 439.806C723.686 432.26 724.145 424.694 725.239 417.528C726.346 410.275 727.968 403.309 730.109 396.81C730.406 395.908 732.538 388.938 730.524 390.139" fill="#89C5CC"/>
<path fill-rule="evenodd" clip-rule="evenodd" d="M708.642 321C705.989 321 706.005 334.226 705.925 335.925C705.637 342.055 705.705 348.188 705.522 354.319C705.123 367.701 704.633 381.2 702.623 394.426C701.541 401.547 700.286 408.636 698.937 415.702C697.583 422.789 695.767 429.867 694.876 437.044C694.021 443.943 694.504 450.977 694.622 457.91C694.739 464.885 694.95 471.874 695.863 478.788C696.089 480.494 696.353 482.195 696.636 483.891C696.872 485.305 696.735 487.057 697.133 488.401C697.773 490.552 700.513 491.256 702.358 490.92C707.35 490.009 710.539 483.74 712.245 479.16C714.423 473.311 715.578 466.967 716.719 460.804C718.011 453.821 718.768 446.732 719.123 439.623C719.845 425.175 718.919 410.712 717.884 396.31C717.308 388.301 716.643 380.327 715.626 372.367C714.612 364.441 713.312 356.55 712.466 348.601C711.851 342.825 711.245 337.04 710.846 331.241C710.751 329.859 710.671 321 708.642 321Z" fill="#69A1AC"/>
<path fill-rule="evenodd" clip-rule="evenodd" d="M705.32 417.139C704.888 403.253 699.306 342.259 698.036 325.467C697.719 321.264 694.661 303.765 694.265 299C693.189 300.347 693.281 321.309 693.293 326.126C693.305 330.891 692.715 335.576 692.411 340.315C692.101 345.151 684.952 407.601 684.024 412.247C682.179 421.491 680.943 430.976 679.991 440.428C679.063 449.639 677.62 459.358 678.862 468.618C679.147 470.75 679.599 472.848 680.334 474.806C681.129 476.922 681.674 478.879 682.311 481.093C683.338 484.659 685.195 487.789 688.048 489.262C693.897 492.281 697.038 485.447 698.63 479.497C701.173 469.995 702.805 460.338 703.57 450.359C704.417 439.318 705.667 428.255 705.32 417.139Z" fill="#D0935A"/>
<path d="M643.38 460C643.38 458.895 644.275 458 645.38 458H732.38C733.484 458 734.38 458.895 734.38 460V547C734.38 548.105 733.484 549 732.38 549H645.38C644.275 549 643.38 548.105 643.38 547V460Z" fill="white"/>
<path d="M633.38 470C633.38 468.895 634.275 468 635.38 468H641.38C642.484 468 643.38 468.895 643.38 470V579C643.38 580.105 642.484 581 641.38 581H635.38C634.275 581 633.38 580.105 633.38 579V470Z" fill="#C5CFD6"/>
<path d="M683.38 470C683.38 468.895 684.275 468 685.38 468H691.38C692.484 468 693.38 468.895 693.38 470V579C693.38 580.105 692.484 581 691.38 581H685.38C684.275 581 683.38 580.105 683.38 579V470Z" fill="#C5CFD6"/>
<path d="M734.38 470C734.38 468.895 735.275 468 736.38 468H742.38C743.484 468 744.38 468.895 744.38 470V579C744.38 580.105 743.484 581 742.38 581H736.38C735.275 581 734.38 580.105 734.38 579V470Z" fill="#C5CFD6"/>
</svg>
