<svg id="root" width="16" height="20" viewBox="0 0 16 20" fill="currentColor"
xmlns="http://www.w3.org/2000/svg">
<path fill-rule="evenodd" clip-rule="evenodd" d="M5.74979 0C4.231 0 2.99979 1.23122 2.99979 2.75V3.1927C2.2045 3.26972 1.41581 3.36947 0.634365 3.49129C0.225095 3.5551 -0.0549598 3.9386 0.00884523 4.34787C0.0726503 4.75714 0.456153 5.0372 0.865423 4.97339L1.01334 4.95062L1.85483 15.4693C1.96916 16.8985 3.16233 18 4.59607 18H9.40329C10.837 18 12.0302 16.8985 12.1445 15.4693L12.986 4.95055L13.1344 4.97339C13.5436 5.0372 13.9271 4.75714 13.9909 4.34787C14.0547 3.9386 13.7747 3.5551 13.3654 3.49129C12.5839 3.36946 11.7951 3.2697 10.9998 3.19268V2.75C10.9998 1.23122 9.76857 0 8.24979 0H5.74979ZM6.99989 3C7.83925 3 8.67279 3.02523 9.49979 3.07499V2.75C9.49979 2.05964 8.94014 1.5 8.24979 1.5H5.74979C5.05943 1.5 4.49979 2.05964 4.49979 2.75V3.075C5.32685 3.02524 6.16046 3 6.99989 3ZM5.57927 6.72002C5.56271 6.30614 5.21377 5.98404 4.79989 6.0006C4.386 6.01716 4.06391 6.36609 4.08046 6.77998L4.38048 14.28C4.39703 14.6939 4.74597 15.016 5.15985 14.9994C5.57374 14.9828 5.89583 14.6339 5.87928 14.22L5.57927 6.72002ZM9.91928 6.77998C9.93583 6.36609 9.61374 6.01715 9.19985 6.0006C8.78597 5.98404 8.43703 6.30614 8.42048 6.72002L8.12048 14.22C8.10392 14.6339 8.42602 14.9828 8.8399 14.9994C9.25378 15.016 9.60272 14.6939 9.61928 14.28L9.91928 6.77998Z"/>
</svg>
